<?xml version="1.0" encoding="UTF-8" standalone="no"?>
<!DOCTYPE svg PUBLIC "-//W3C//DTD SVG 1.1//EN" "http://www.w3.org/Graphics/SVG/1.1/DTD/svg11.dtd">
<!-- Generated by Microsoft Visio, SVG Export Ladok development discovery.svg Page-1 -->
<svg xmlns="http://www.w3.org/2000/svg" xmlns:xlink="http://www.w3.org/1999/xlink" xmlns:ev="http://www.w3.org/2001/xml-events"
		xmlns:v="http://schemas.microsoft.com/visio/2003/SVGExtensions/" width="12.2441in" height="2.55906in"
		viewBox="0 0 881.575 184.252" xml:space="preserve" color-interpolation-filters="sRGB" class="st25">
	<v:documentProperties v:langID="1033" v:metric="true" v:viewMarkup="false">
		<v:userDefs>
			<v:ud v:nameU="msvSubprocessMaster" v:prompt="" v:val="VT4(Rectangle)"/>
			<v:ud v:nameU="msvNoAutoConnect" v:val="VT0(1):26"/>
		</v:userDefs>
	</v:documentProperties>

	<style type="text/css">
	<![CDATA[
		.st1 {visibility:visible}
		.st2 {fill:none;filter:url(#filter_2);stroke:#5b9bd5;stroke-dasharray:4.5,4.5;stroke-opacity:0.22}
		.st3 {fill:#5b9bd5;filter:url(#filter_2);font-family:Calibri;font-size:1.33333em;font-weight:bold;opacity:0.219608}
		.st4 {fill:none;stroke:#a5a5a5;stroke-dasharray:4.5,4.5;stroke-width:1.5}
		.st5 {fill:#7f7f7f;font-family:Calibri;font-size:1.33333em;font-weight:bold}
		.st6 {fill:none;stroke:none;stroke-width:0.25}
		.st7 {fill:#7f7f7f;font-family:Calibri;font-size:1.00001em;font-style:italic}
		.st8 {font-size:1em}
		.st9 {fill:#5b9bd5;fill-opacity:0.22;filter:url(#filter_2);stroke:#5b9bd5;stroke-opacity:0.22}
		.st10 {fill:#ffffff;stroke:#a5a5a5;stroke-width:2.25}
		.st11 {fill:#7f7f7f;font-family:Calibri;font-size:1.00001em}
		.st12 {fill:#ffffff;stroke:#000000;stroke-width:2.25}
		.st13 {fill:#000000;font-family:Calibri;font-size:1.00001em}
		.st14 {marker-end:url(#mrkr4-65);stroke:#000000;stroke-linecap:round;stroke-linejoin:round;stroke-width:2.25}
		.st15 {fill:#000000;fill-opacity:1;stroke:#000000;stroke-opacity:1;stroke-width:0.47169811320755}
		.st16 {fill:#ffffff;stroke:none;stroke-linecap:butt;stroke-width:7.2}
		.st17 {fill:#ffffff;font-family:Calibri;font-size:1.00001em}
		.st18 {fill:#000000;font-size:1em}
		.st19 {marker-start:url(#mrkr4-74);stroke:#000000;stroke-linecap:round;stroke-linejoin:round;stroke-width:2.25}
		.st20 {fill:#ffffff;stroke:none;stroke-linecap:butt}
		.st21 {marker-end:url(#mrkr4-83);stroke:#a5a5a5;stroke-linecap:round;stroke-linejoin:round;stroke-width:2.25}
		.st22 {fill:#a5a5a5;fill-opacity:1;stroke:#a5a5a5;stroke-opacity:1;stroke-width:0.47169811320755}
		.st23 {fill:#7f7f7f;font-size:1em}
		.st24 {marker-start:url(#mrkr4-92);stroke:#a5a5a5;stroke-linecap:round;stroke-linejoin:round;stroke-width:2.25}
		.st25 {fill:none;fill-rule:evenodd;font-size:12px;overflow:visible;stroke-linecap:square;stroke-miterlimit:3}
	]]>
	</style>

	<defs id="Markers">
		<g id="lend4">
			<path d="M 2 1 L 0 0 L 2 -1 L 2 1 " style="stroke:none"/>
		</g>
		<marker id="mrkr4-65" class="st15" v:arrowType="4" v:arrowSize="2" v:setback="4.24" refX="-4.24" orient="auto"
				markerUnits="strokeWidth" overflow="visible">
			<use xlink:href="#lend4" transform="scale(-2.12,-2.12) "/>
		</marker>
		<marker id="mrkr4-74" class="st15" v:arrowType="4" v:arrowSize="2" v:setback="4.08" refX="4.08" orient="auto"
				markerUnits="strokeWidth" overflow="visible">
			<use xlink:href="#lend4" transform="scale(2.12) "/>
		</marker>
		<marker id="mrkr4-83" class="st22" v:arrowType="4" v:arrowSize="2" v:setback="4.24" refX="-4.24" orient="auto"
				markerUnits="strokeWidth" overflow="visible">
			<use xlink:href="#lend4" transform="scale(-2.12,-2.12) "/>
		</marker>
		<marker id="mrkr4-92" class="st22" v:arrowType="4" v:arrowSize="2" v:setback="4.08" refX="4.08" orient="auto"
				markerUnits="strokeWidth" overflow="visible">
			<use xlink:href="#lend4" transform="scale(2.12) "/>
		</marker>
	</defs>
	<defs id="Filters">
		<filter id="filter_2">
			<feGaussianBlur stdDeviation="2"/>
		</filter>
	</defs>
	<g v:mID="0" v:index="1" v:groupContext="foregroundPage">
		<v:userDefs>
			<v:ud v:nameU="msvThemeOrder" v:val="VT0(0):26"/>
		</v:userDefs>
		<title>Page-1</title>
		<v:pageProperties v:drawingScale="0.0393701" v:pageScale="0.0393701" v:drawingUnits="24" v:shadowOffsetX="8.50394"
				v:shadowOffsetY="-8.50394"/>
		<v:layer v:name="Connector" v:index="0"/>
		<g id="shape32-1" v:mID="32" v:groupContext="shape" transform="translate(34.0157,-17.7165)">
			<title>Rectangle</title>
			<desc>Ladok Development Federation</desc>
			<v:userDefs>
				<v:ud v:nameU="visVersion" v:val="VT0(15):26"/>
			</v:userDefs>
			<v:textBlock v:margins="rect(4,4,4,4)" v:tabSpace="42.5197" v:verticalAlign="0"/>
			<v:textRect cx="205.512" cy="115.157" width="411.03" height="138.189"/>
			<g id="shadow32-2" v:groupContext="shadow" v:shadowOffsetX="0.345598" v:shadowOffsetY="-1.97279" v:shadowType="1"
					transform="matrix(1,0,0,1,0.345598,1.97279)" class="st1">
				<path d="M0 184.25 L411.02 184.25 L411.02 46.06 L0 46.06 L0 184.25 Z" class="st2"/>
				<text x="4" y="64.46" class="st3" v:langID="1053"><v:paragraph/><v:tabList/>Ladok Development Federation</text>			</g>
			<path d="M0 184.25 L411.02 184.25 L411.02 46.06 L0 46.06 L0 184.25 Z" class="st4"/>
			<text x="4" y="64.46" class="st5" v:langID="1053"><v:paragraph/><v:tabList/>Ladok Development Federation</text>		</g>
		<g id="shape57-9" v:mID="57" v:groupContext="shape" transform="translate(345.827,-74.4094)">
			<title>Sheet.57</title>
			<desc>7. Select Ladok user</desc>
			<v:textBlock v:margins="rect(4,4,4,4)" v:tabSpace="42.5197" v:verticalAlign="0"/>
			<v:textRect cx="63.7795" cy="162.992" width="127.56" height="42.5197"/>
			<rect x="0" y="141.732" width="127.559" height="42.5197" class="st6"/>
			<text x="43.54" y="156.53" class="st7" v:langID="1053"><v:paragraph v:horizAlign="1"/><v:tabList/>7. Select<v:newlineChar/><tspan
						x="37.58" dy="1.2em" class="st8">Ladok user</tspan></text>		</g>
		<g id="shape33-13" v:mID="33" v:groupContext="shape" transform="translate(445.039,-17.7165)">
			<title>Rectangle.33</title>
			<desc>SWAMID Identity Federation</desc>
			<v:userDefs>
				<v:ud v:nameU="visVersion" v:val="VT0(15):26"/>
			</v:userDefs>
			<v:textBlock v:margins="rect(4,4,4,4)" v:tabSpace="42.5197" v:verticalAlign="0"/>
			<v:textRect cx="205.512" cy="115.157" width="411.03" height="138.189"/>
			<g id="shadow33-14" v:groupContext="shadow" v:shadowOffsetX="0.345598" v:shadowOffsetY="-1.97279" v:shadowType="1"
					transform="matrix(1,0,0,1,0.345598,1.97279)" class="st1">
				<path d="M0 184.25 L411.02 184.25 L411.02 46.06 L0 46.06 L0 184.25 Z" class="st2"/>
				<text x="215.31" y="64.46" class="st3" v:langID="1053"><v:paragraph v:horizAlign="2"/><v:tabList/>SWAMID Identity Federation</text>			</g>
			<path d="M0 184.25 L411.02 184.25 L411.02 46.06 L0 46.06 L0 184.25 Z" class="st4"/>
			<text x="215.31" y="64.46" class="st5" v:langID="1053"><v:paragraph v:horizAlign="2"/><v:tabList/>SWAMID Identity Federation</text>		</g>
		<g id="shape21-21" v:mID="21" v:groupContext="shape" transform="translate(48.189,-38.5187)">
			<title>Rounded Rectangle.21</title>
			<desc>Ladok dev Site</desc>
			<v:userDefs>
				<v:ud v:nameU="CTypeTopLeftSnip" v:prompt="" v:val="VT0(0):5"/>
				<v:ud v:nameU="CTypeTopRightSnip" v:prompt="" v:val="VT0(0):5"/>
				<v:ud v:nameU="CTypeBotLeftSnip" v:prompt="" v:val="VT0(0):5"/>
				<v:ud v:nameU="CTypeBotRightSnip" v:prompt="" v:val="VT0(0):5"/>
				<v:ud v:nameU="CornerLockHoriz" v:prompt="" v:val="VT0(1):5"/>
				<v:ud v:nameU="CornerLockVert" v:prompt="" v:val="VT0(1):5"/>
				<v:ud v:nameU="CornerLockDiag" v:prompt="" v:val="VT0(0):5"/>
				<v:ud v:nameU="TopLeftOffset" v:prompt="" v:val="VT0(0.15748031496063):24"/>
				<v:ud v:nameU="TopRightOffset" v:prompt="" v:val="VT0(0.15748031496063):24"/>
				<v:ud v:nameU="BotLeftOffset" v:prompt="" v:val="VT0(0.15748031496063):24"/>
				<v:ud v:nameU="BotRightOffset" v:prompt="" v:val="VT0(0.15748031496063):24"/>
				<v:ud v:nameU="visVersion" v:prompt="" v:val="VT0(15):26"/>
			</v:userDefs>
			<v:textBlock v:margins="rect(4,4,4,4)" v:tabSpace="42.5197"/>
			<v:textRect cx="56.6929" cy="162.534" width="113.39" height="43.435"/>
			<g id="shadow21-22" v:groupContext="shadow" v:shadowOffsetX="0.345598" v:shadowOffsetY="-1.97279" v:shadowType="1"
					transform="matrix(1,0,0,1,0.345598,1.97279)" class="st1">
				<path d="M11.34 184.25 L102.05 184.25 A11.3384 11.3384 -180 0 0 113.39 172.91 L113.39 152.16 A11.3384 11.3384 -180
							 0 0 102.05 140.82 L11.34 140.82 A11.3384 11.3384 -180 0 0 0 152.16 L0 172.91 A11.3384 11.3384 -180 0
							 0 11.34 184.25 Z" class="st9"/>
			</g>
			<path d="M11.34 184.25 L102.05 184.25 A11.3384 11.3384 -180 0 0 113.39 172.91 L113.39 152.16 A11.3384 11.3384 -180 0
						 0 102.05 140.82 L11.34 140.82 A11.3384 11.3384 -180 0 0 0 152.16 L0 172.91 A11.3384 11.3384 -180 0 0 11.34
						 184.25 Z" class="st10"/>
			<text x="32.05" y="158.93" class="st11" v:langID="1053"><v:paragraph v:horizAlign="1"/><v:tabList/>Ladok dev<v:newlineChar/><tspan
						x="47.56" dy="1.2em" class="st8">Site</tspan></text>		</g>
		<g id="shape22-28" v:mID="22" v:groupContext="shape" transform="translate(218.268,-81.0384)">
			<title>Rounded Rectangle.22</title>
			<desc>Ladok dev Discovery Service</desc>
			<v:userDefs>
				<v:ud v:nameU="CTypeTopLeftSnip" v:prompt="" v:val="VT0(0):5"/>
				<v:ud v:nameU="CTypeTopRightSnip" v:prompt="" v:val="VT0(0):5"/>
				<v:ud v:nameU="CTypeBotLeftSnip" v:prompt="" v:val="VT0(0):5"/>
				<v:ud v:nameU="CTypeBotRightSnip" v:prompt="" v:val="VT0(0):5"/>
				<v:ud v:nameU="CornerLockHoriz" v:prompt="" v:val="VT0(1):5"/>
				<v:ud v:nameU="CornerLockVert" v:prompt="" v:val="VT0(1):5"/>
				<v:ud v:nameU="CornerLockDiag" v:prompt="" v:val="VT0(0):5"/>
				<v:ud v:nameU="TopLeftOffset" v:prompt="" v:val="VT0(0.15748031496063):24"/>
				<v:ud v:nameU="TopRightOffset" v:prompt="" v:val="VT0(0.15748031496063):24"/>
				<v:ud v:nameU="BotLeftOffset" v:prompt="" v:val="VT0(0.15748031496063):24"/>
				<v:ud v:nameU="BotRightOffset" v:prompt="" v:val="VT0(0.15748031496063):24"/>
				<v:ud v:nameU="visVersion" v:prompt="" v:val="VT0(15):26"/>
			</v:userDefs>
			<v:textBlock v:margins="rect(4,4,4,4)" v:tabSpace="42.5197"/>
			<v:textRect cx="56.6929" cy="162.534" width="113.39" height="43.435"/>
			<g id="shadow22-29" v:groupContext="shadow" v:shadowOffsetX="0.345598" v:shadowOffsetY="-1.97279" v:shadowType="1"
					transform="matrix(1,0,0,1,0.345598,1.97279)" class="st1">
				<path d="M11.34 184.25 L102.05 184.25 A11.3384 11.3384 -180 0 0 113.39 172.91 L113.39 152.16 A11.3384 11.3384 -180
							 0 0 102.05 140.82 L11.34 140.82 A11.3384 11.3384 -180 0 0 0 152.16 L0 172.91 A11.3384 11.3384 -180 0
							 0 11.34 184.25 Z" class="st9"/>
			</g>
			<path d="M11.34 184.25 L102.05 184.25 A11.3384 11.3384 -180 0 0 113.39 172.91 L113.39 152.16 A11.3384 11.3384 -180 0
						 0 102.05 140.82 L11.34 140.82 A11.3384 11.3384 -180 0 0 0 152.16 L0 172.91 A11.3384 11.3384 -180 0 0 11.34
						 184.25 Z" class="st12"/>
			<text x="32.05" y="158.93" class="st13" v:langID="1053"><v:paragraph v:horizAlign="1"/><v:tabList/>Ladok dev<v:lf/><tspan
						x="14.27" dy="1.2em" class="st8">Discovery Service</tspan></text>		</g>
		<g id="shape24-35" v:mID="24" v:groupContext="shape" transform="translate(558.425,-81.0384)">
			<title>Rounded Rectangle.24</title>
			<desc>SeamlessAccess Discovery Service</desc>
			<v:userDefs>
				<v:ud v:nameU="CTypeTopLeftSnip" v:prompt="" v:val="VT0(0):5"/>
				<v:ud v:nameU="CTypeTopRightSnip" v:prompt="" v:val="VT0(0):5"/>
				<v:ud v:nameU="CTypeBotLeftSnip" v:prompt="" v:val="VT0(0):5"/>
				<v:ud v:nameU="CTypeBotRightSnip" v:prompt="" v:val="VT0(0):5"/>
				<v:ud v:nameU="CornerLockHoriz" v:prompt="" v:val="VT0(1):5"/>
				<v:ud v:nameU="CornerLockVert" v:prompt="" v:val="VT0(1):5"/>
				<v:ud v:nameU="CornerLockDiag" v:prompt="" v:val="VT0(0):5"/>
				<v:ud v:nameU="TopLeftOffset" v:prompt="" v:val="VT0(0.15748031496063):24"/>
				<v:ud v:nameU="TopRightOffset" v:prompt="" v:val="VT0(0.15748031496063):24"/>
				<v:ud v:nameU="BotLeftOffset" v:prompt="" v:val="VT0(0.15748031496063):24"/>
				<v:ud v:nameU="BotRightOffset" v:prompt="" v:val="VT0(0.15748031496063):24"/>
				<v:ud v:nameU="visVersion" v:prompt="" v:val="VT0(15):26"/>
			</v:userDefs>
			<v:textBlock v:margins="rect(4,4,4,4)" v:tabSpace="42.5197"/>
			<v:textRect cx="56.6929" cy="162.534" width="113.39" height="43.435"/>
			<g id="shadow24-36" v:groupContext="shadow" v:shadowOffsetX="0.345598" v:shadowOffsetY="-1.97279" v:shadowType="1"
					transform="matrix(1,0,0,1,0.345598,1.97279)" class="st1">
				<path d="M11.34 184.25 L102.05 184.25 A11.3384 11.3384 -180 0 0 113.39 172.91 L113.39 152.16 A11.3384 11.3384 -180
							 0 0 102.05 140.82 L11.34 140.82 A11.3384 11.3384 -180 0 0 0 152.16 L0 172.91 A11.3384 11.3384 -180 0
							 0 11.34 184.25 Z" class="st9"/>
			</g>
			<path d="M11.34 184.25 L102.05 184.25 A11.3384 11.3384 -180 0 0 113.39 172.91 L113.39 152.16 A11.3384 11.3384 -180 0
						 0 102.05 140.82 L11.34 140.82 A11.3384 11.3384 -180 0 0 0 152.16 L0 172.91 A11.3384 11.3384 -180 0 0 11.34
						 184.25 Z" class="st10"/>
			<text x="18" y="158.93" class="st11" v:langID="1053"><v:paragraph v:horizAlign="1"/><v:tabList/>SeamlessAccess<v:lf/><tspan
						x="14.27" dy="1.2em" class="st8">Discovery Service</tspan></text>		</g>
		<g id="shape56-42" v:mID="56" v:groupContext="shape" transform="translate(700.157,-74.4094)">
			<title>Sheet.56</title>
			<desc>5. Login with username/password</desc>
			<v:textBlock v:margins="rect(4,4,4,4)" v:tabSpace="42.5197" v:verticalAlign="0"/>
			<v:textRect cx="63.7795" cy="162.992" width="127.56" height="42.5197"/>
			<rect x="0" y="141.732" width="127.559" height="42.5197" class="st6"/>
			<text x="32.6" y="156.53" class="st7" v:langID="1053"><v:paragraph v:horizAlign="1"/><v:tabList/>5. Login with<v:lf/><tspan
						x="13.98" dy="1.2em" class="st8">username</tspan>/password</text>		</g>
		<g id="shape25-46" v:mID="25" v:groupContext="shape" transform="translate(728.504,-38.5187)">
			<title>Rounded Rectangle.25</title>
			<desc>Your Login Service (UmU, UU, eduID, …)</desc>
			<v:userDefs>
				<v:ud v:nameU="CTypeTopLeftSnip" v:prompt="" v:val="VT0(0):5"/>
				<v:ud v:nameU="CTypeTopRightSnip" v:prompt="" v:val="VT0(0):5"/>
				<v:ud v:nameU="CTypeBotLeftSnip" v:prompt="" v:val="VT0(0):5"/>
				<v:ud v:nameU="CTypeBotRightSnip" v:prompt="" v:val="VT0(0):5"/>
				<v:ud v:nameU="CornerLockHoriz" v:prompt="" v:val="VT0(1):5"/>
				<v:ud v:nameU="CornerLockVert" v:prompt="" v:val="VT0(1):5"/>
				<v:ud v:nameU="CornerLockDiag" v:prompt="" v:val="VT0(0):5"/>
				<v:ud v:nameU="TopLeftOffset" v:prompt="" v:val="VT0(0.15748031496063):24"/>
				<v:ud v:nameU="TopRightOffset" v:prompt="" v:val="VT0(0.15748031496063):24"/>
				<v:ud v:nameU="BotLeftOffset" v:prompt="" v:val="VT0(0.15748031496063):24"/>
				<v:ud v:nameU="BotRightOffset" v:prompt="" v:val="VT0(0.15748031496063):24"/>
				<v:ud v:nameU="visVersion" v:prompt="" v:val="VT0(15):26"/>
			</v:userDefs>
			<v:textBlock v:margins="rect(4,4,4,4)" v:tabSpace="42.5197"/>
			<v:textRect cx="56.6929" cy="162.534" width="113.39" height="43.435"/>
			<g id="shadow25-47" v:groupContext="shadow" v:shadowOffsetX="0.345598" v:shadowOffsetY="-1.97279" v:shadowType="1"
					transform="matrix(1,0,0,1,0.345598,1.97279)" class="st1">
				<path d="M11.34 184.25 L102.05 184.25 A11.3384 11.3384 -180 0 0 113.39 172.91 L113.39 152.16 A11.3384 11.3384 -180
							 0 0 102.05 140.82 L11.34 140.82 A11.3384 11.3384 -180 0 0 0 152.16 L0 172.91 A11.3384 11.3384 -180 0
							 0 11.34 184.25 Z" class="st9"/>
			</g>
			<path d="M11.34 184.25 L102.05 184.25 A11.3384 11.3384 -180 0 0 113.39 172.91 L113.39 152.16 A11.3384 11.3384 -180 0
						 0 102.05 140.82 L11.34 140.82 A11.3384 11.3384 -180 0 0 0 152.16 L0 172.91 A11.3384 11.3384 -180 0 0 11.34
						 184.25 Z" class="st10"/>
			<text x="12.16" y="158.93" class="st11" v:langID="1053"><v:paragraph v:horizAlign="1"/><v:tabList/>Your Login Service<v:lf/><tspan
						x="5.67" dy="1.2em" class="st8">(</tspan>UmU, UU, eduID, …)</text>		</g>
		<g id="shape23-53" v:mID="23" v:groupContext="shape" transform="translate(388.346,-38.5187)">
			<title>Rounded Rectangle.23</title>
			<desc>Ladok Development Login</desc>
			<v:userDefs>
				<v:ud v:nameU="CTypeTopLeftSnip" v:prompt="" v:val="VT0(0):5"/>
				<v:ud v:nameU="CTypeTopRightSnip" v:prompt="" v:val="VT0(0):5"/>
				<v:ud v:nameU="CTypeBotLeftSnip" v:prompt="" v:val="VT0(0):5"/>
				<v:ud v:nameU="CTypeBotRightSnip" v:prompt="" v:val="VT0(0):5"/>
				<v:ud v:nameU="CornerLockHoriz" v:prompt="" v:val="VT0(1):5"/>
				<v:ud v:nameU="CornerLockVert" v:prompt="" v:val="VT0(1):5"/>
				<v:ud v:nameU="CornerLockDiag" v:prompt="" v:val="VT0(0):5"/>
				<v:ud v:nameU="TopLeftOffset" v:prompt="" v:val="VT0(0.15748031496063):24"/>
				<v:ud v:nameU="TopRightOffset" v:prompt="" v:val="VT0(0.15748031496063):24"/>
				<v:ud v:nameU="BotLeftOffset" v:prompt="" v:val="VT0(0.15748031496063):24"/>
				<v:ud v:nameU="BotRightOffset" v:prompt="" v:val="VT0(0.15748031496063):24"/>
				<v:ud v:nameU="visVersion" v:prompt="" v:val="VT0(15):26"/>
			</v:userDefs>
			<v:textBlock v:margins="rect(4,4,4,4)" v:tabSpace="42.5197"/>
			<v:textRect cx="56.6929" cy="162.534" width="113.39" height="43.435"/>
			<g id="shadow23-54" v:groupContext="shadow" v:shadowOffsetX="0.345598" v:shadowOffsetY="-1.97279" v:shadowType="1"
					transform="matrix(1,0,0,1,0.345598,1.97279)" class="st1">
				<path d="M11.34 184.25 L102.05 184.25 A11.3384 11.3384 -180 0 0 113.39 172.91 L113.39 152.16 A11.3384 11.3384 -180
							 0 0 102.05 140.82 L11.34 140.82 A11.3384 11.3384 -180 0 0 0 152.16 L0 172.91 A11.3384 11.3384 -180 0
							 0 11.34 184.25 Z" class="st9"/>
			</g>
			<path d="M11.34 184.25 L102.05 184.25 A11.3384 11.3384 -180 0 0 113.39 172.91 L113.39 152.16 A11.3384 11.3384 -180 0
						 0 102.05 140.82 L11.34 140.82 A11.3384 11.3384 -180 0 0 0 152.16 L0 172.91 A11.3384 11.3384 -180 0 0 11.34
						 184.25 Z" class="st10"/>
			<text x="42.25" y="158.93" class="st11" v:langID="1053"><v:paragraph v:horizAlign="1"/><v:tabList/>Ladok<v:lf/><tspan
						x="9.29" dy="1.2em" class="st8">Development Login</tspan></text>		</g>
		<g id="shape37-60" v:mID="37" v:groupContext="shape" transform="translate(102.696,-63.2567) rotate(-20.0372)">
			<title>Sheet.37</title>
			<desc>.1.</desc>
			<v:textBlock v:margins="rect(8,8,8,8)" v:tabSpace="42.5197"/>
			<v:textRect cx="25.6469" cy="184.252" width="51.3" height="0" transform="rotate(20.0372)"/>
			<path d="M0 184.25 L41.75 184.25" class="st14"/>
			<rect v:rectContext="textBkgnd" x="81.1545" y="157.112" width="12.1404" height="14.4001" transform="rotate(20.0372)"
					class="st16"/>
			<text x="81.15" y="167.91" transform="rotate(20.0372)" class="st17" v:langID="1053"><v:paragraph v:horizAlign="1"/><v:tabList/>.<tspan
						class="st18">1</tspan>.</text>		</g>
		<g id="shape41-69" v:mID="41" v:groupContext="shape" transform="translate(353.865,306.736) rotate(-172.607)">
			<title>Sheet.41</title>
			<desc>.2.</desc>
			<v:textBlock v:margins="rect(8,8,8,8)" v:tabSpace="42.5197"/>
			<v:textRect cx="112.797" cy="169.976" width="165.22" height="20.8809" transform="rotate(174.053)"/>
			<path d="M9.09 182.98 L9.45 182.93 C56 176.26 222.29 151.52 198.42 169.86 C192.93 174.08 177.37 180.58 165.22 184.25"
					class="st19"/>
			<rect v:rectContext="textBkgnd" x="-100.65" y="-187.948" width="12.1404" height="14.4001" transform="rotate(174.053)"
					class="st20"/>
			<text x="-100.65" y="-177.15" transform="rotate(174.053)" class="st17" v:langID="1053"><v:paragraph v:horizAlign="1"/><v:tabList/>.<tspan
						class="st18">2</tspan>.</text>		</g>
		<g id="shape48-78" v:mID="48" v:groupContext="shape" transform="translate(442.384,-63.2567) rotate(-20.0372)">
			<title>Sheet.48</title>
			<desc>.3.</desc>
			<v:textBlock v:margins="rect(8,8,8,8)" v:tabSpace="42.5197"/>
			<v:textRect cx="25.6469" cy="184.252" width="51.3" height="0" transform="rotate(20.0372)"/>
			<path d="M0 184.25 L41.75 184.25" class="st21"/>
			<rect v:rectContext="textBkgnd" x="81.1545" y="157.112" width="12.1404" height="14.4001" transform="rotate(20.0372)"
					class="st20"/>
			<text x="81.15" y="167.91" transform="rotate(20.0372)" class="st17" v:langID="1053"><v:paragraph v:horizAlign="1"/><v:tabList/>.<tspan
						class="st23">3</tspan>.</text>		</g>
		<g id="shape49-87" v:mID="49" v:groupContext="shape" transform="translate(693.553,306.736) rotate(-172.607)">
			<title>Sheet.49</title>
			<desc>.4.</desc>
			<v:textBlock v:margins="rect(8,8,8,8)" v:tabSpace="42.5197"/>
			<v:textRect cx="112.797" cy="169.976" width="165.22" height="20.8809" transform="rotate(174.053)"/>
			<path d="M9.09 182.98 L9.45 182.93 C56 176.26 222.29 151.52 198.42 169.86 C192.93 174.08 177.37 180.58 165.22 184.25"
					class="st24"/>
			<rect v:rectContext="textBkgnd" x="-100.65" y="-187.948" width="12.1404" height="14.4001" transform="rotate(174.053)"
					class="st16"/>
			<text x="-100.65" y="-177.15" transform="rotate(174.053)" class="st17" v:langID="1053"><v:paragraph v:horizAlign="1"/><v:tabList/>.<tspan
						class="st23">4</tspan>.</text>		</g>
		<g id="shape50-96" v:mID="50" v:groupContext="shape" transform="translate(716.031,319.457) rotate(180)">
			<title>Sheet.50</title>
			<desc>.6.</desc>
			<v:textBlock v:margins="rect(8,8,8,8)" v:tabSpace="42.5197"/>
			<v:textRect cx="103.345" cy="184.252" width="206.7" height="0" transform="rotate(180)"/>
			<path d="M0 184.25 L197.15 184.25" class="st21"/>
			<rect v:rectContext="textBkgnd" x="-109.416" y="-191.452" width="12.1404" height="14.4001" transform="rotate(180)"
					class="st16"/>
			<text x="-109.42" y="-180.65" transform="rotate(180)" class="st17" v:langID="1053"><v:paragraph v:horizAlign="1"/><v:tabList/>.<tspan
						class="st23">6</tspan>.</text>		</g>
		<g id="shape52-104" v:mID="52" v:groupContext="shape" transform="translate(376.486,319.457) rotate(180)">
			<title>Sheet.52</title>
			<desc>.8.</desc>
			<v:textBlock v:margins="rect(8,8,8,8)" v:tabSpace="42.5197"/>
			<v:textRect cx="103.345" cy="184.252" width="206.7" height="0" transform="rotate(180)"/>
			<path d="M0 184.25 L197.15 184.25" class="st21"/>
			<rect v:rectContext="textBkgnd" x="-109.416" y="-191.452" width="12.1404" height="14.4001" transform="rotate(180)"
					class="st16"/>
			<text x="-109.42" y="-180.65" transform="rotate(180)" class="st17" v:langID="1053"><v:paragraph v:horizAlign="1"/><v:tabList/>.<tspan
						class="st23">8</tspan>.</text>		</g>
	</g>
</svg>
